# xmcd
#
# Track frame offsets: 
#        150
#        19455
#        33387
#        42775
#        57057
#        66342
#        80512
#        99315
#        113285
#        121167
#        124195
#        126837
#        128615
#        136035
#        158415
#        183087
#        193927
#        196657
#        203867
#        215672
#        235862
#        249980
#        262735
#        275030
#        292040
#
# Disc length: 4006 seconds
#
# Revision: 8
# Processed by: cddbd v1.5.2PL0 Copyright (c) Steve Scherf et al.
# Submitted via: ExactAudioCopyFreeDBPlugin 1.0
#
DISCID=5b0fa419
DTITLE=Various Artist - Roots of Rhythm and Blues:  A Tribute to the 
DTITLE=Robert Johnson Era
DYEAR=1992
DGENRE=Blues
TTITLE0=Johnny Shines - Sweet Home Chicago
TTITLE1=Lonnie Pitchford - Come on in My Kitchen
TTITLE2=Moving Star Hall Singers - You've Got to Move
TTITLE3=Henry Townsend - All My Money's Gone
TTITLE4=Robert Junior Lockwood with Gene Schwartz - How Long, How Long
TTITLE4=Blues
TTITLE5=David "Honeyboy" Edwards - That's Alright
TTITLE6=Jessie Mae Hemphill - Train, Train
TTITLE7=Elder Roma Wilson - This Train
TTITLE8=Phil Wiggins - Silver Comet Train
TTITLE9=Railroad Maintenance Crew - Captain Can't Read
TTITLE10=Johnny Shines - Satisfied
TTITLE11=Johnny Shines - Watermelons
TTITLE12=David Savage - I'm Going Home
TTITLE13=John Cephas and Phil Wiggins - The Brownsville Blues
TTITLE14=Johnny Shines - Loved and Lost
TTITLE15=Lonnie Pitchford - Walking Blues
TTITLE16=Johnny Shines - Tell Me Daddy, How You Want Your Rolling Done
TTITLE17=David Savage - Bertha
TTITLE18=Moving Star Hall Singers - If You Miss Me
TTITLE19=Johnny Shines - The Moon is Rising
TTITLE20=Robert Junior Lockwood - Kind Hearted Woman
TTITLE21=Toshi Reagon - I Hate to See the Sun Go Down
TTITLE22=Lonnie Pitchford - Terraplane Blues
TTITLE23=Johnny Shines - Milkcow Blues
TTITLE24=Johnny Shines - Fat Mama
EXTD=Columbia Records 1992
EXTT0=
EXTT1=
EXTT2=
EXTT3=
EXTT4=
EXTT5=
EXTT6=
EXTT7=
EXTT8=
EXTT9=
EXTT10=
EXTT11=
EXTT12=
EXTT13=
EXTT14=
EXTT15=
EXTT16=
EXTT17=
EXTT18=
EXTT19=
EXTT20=
EXTT21=
EXTT22=
EXTT23=
EXTT24=
PLAYORDER=
